# MagicaVoxel @ Ephtracy

# group
o 

# material
mtllib GlowRocket2.mtl
usemtl palette

# normals
vn -1 0 0
vn 1 0 0
vn 0 0 1
vn 0 0 -1
vn 0 -1 0
vn 0 1 0

# texcoords
vt 0.146484 0.5
vt 0.923828 0.5
vt 0.994141 0.5

# verts
v -0.5 0.1 1
v -0.5 0.1 -0.7
v -0.5 0.2 1.1
v -0.5 0.2 1
v -0.5 0.2 -0.6
v -0.5 0.4 -0.9
v -0.5 0.4 -1.2
v -0.5 0.6 -0.9
v -0.5 0.6 -1.2
v -0.5 0.8 1.1
v -0.5 0.8 1
v -0.5 0.8 -0.6
v -0.5 0.9 1
v -0.5 0.9 -0.7
v -0.4 0 1
v -0.4 0 -0.7
v -0.4 0.1 1.1
v -0.4 0.1 1
v -0.4 0.1 -0.7
v -0.4 0.1 -0.8
v -0.4 0.2 1.2
v -0.4 0.2 1.1
v -0.4 0.2 1
v -0.4 0.4 -0.8
v -0.4 0.4 -0.9
v -0.4 0.6 -0.8
v -0.4 0.6 -0.9
v -0.4 0.8 1.2
v -0.4 0.8 1.1
v -0.4 0.8 1
v -0.4 0.9 1.1
v -0.4 0.9 1
v -0.4 0.9 -0.7
v -0.4 0.9 -0.8
v -0.4 1 1
v -0.4 1 -0.7
v -0.3 0 1.1
v -0.3 0 1
v -0.3 0.1 1.2
v -0.3 0.1 1.1
v -0.3 0.1 1
v -0.3 0.2 1.2
v -0.3 0.2 1.1
v -0.3 0.8 1.2
v -0.3 0.8 1.1
v -0.3 0.9 1.2
v -0.3 0.9 1.1
v -0.3 0.9 1
v -0.3 1 1.1
v -0.3 1 1
v -0.1 0 -0.9
v -0.1 0 -1.2
v -0.1 0.1 -0.8
v -0.1 0.1 -0.9
v -0.1 0.1 -1.1
v -0.1 0.1 -1.2
v -0.1 0.2 -1
v -0.1 0.2 -1.1
v -0.1 0.3 -0.9
v -0.1 0.3 -1
v -0.1 0.4 -0.8
v -0.1 0.4 -0.9
v -0.1 0.6 -0.8
v -0.1 0.6 -0.9
v -0.1 0.7 -0.9
v -0.1 0.7 -1
v -0.1 0.8 -1
v -0.1 0.8 -1.1
v -0.1 0.9 -0.8
v -0.1 0.9 -0.9
v -0.1 0.9 -1.1
v -0.1 0.9 -1.2
v -0.1 1 -0.9
v -0.1 1 -1.2
v 0.1 0.4 -0.8
v 0.1 0.4 -0.9
v 0.1 0.6 -0.8
v 0.1 0.6 -0.9
v 0.2 0.4 -0.9
v 0.2 0.4 -1
v 0.2 0.6 -0.9
v 0.2 0.6 -1
v 0.3 0.4 -1
v 0.3 0.4 -1.1
v 0.3 0.6 -1
v 0.3 0.6 -1.1
v 0.4 0.4 -1.1
v 0.4 0.4 -1.2
v 0.4 0.6 -1.1
v 0.4 0.6 -1.2
v -0.4 0.4 -1.1
v -0.4 0.4 -1.2
v -0.4 0.6 -1.1
v -0.4 0.6 -1.2
v -0.3 0.4 -1
v -0.3 0.4 -1.1
v -0.3 0.6 -1
v -0.3 0.6 -1.1
v -0.2 0.4 -0.9
v -0.2 0.4 -1
v -0.2 0.6 -0.9
v -0.2 0.6 -1
v -0.1 0.4 -0.8
v -0.1 0.4 -0.9
v -0.1 0.6 -0.8
v -0.1 0.6 -0.9
v 0.1 0 -0.9
v 0.1 0 -1.2
v 0.1 0.1 -0.8
v 0.1 0.1 -0.9
v 0.1 0.1 -1.1
v 0.1 0.1 -1.2
v 0.1 0.2 -1
v 0.1 0.2 -1.1
v 0.1 0.3 -0.9
v 0.1 0.3 -1
v 0.1 0.4 -0.8
v 0.1 0.4 -0.9
v 0.1 0.6 -0.8
v 0.1 0.6 -0.9
v 0.1 0.7 -0.9
v 0.1 0.7 -1
v 0.1 0.8 -1
v 0.1 0.8 -1.1
v 0.1 0.9 -0.8
v 0.1 0.9 -0.9
v 0.1 0.9 -1.1
v 0.1 0.9 -1.2
v 0.1 1 -0.9
v 0.1 1 -1.2
v 0.3 0 1.1
v 0.3 0 1
v 0.3 0.1 1.2
v 0.3 0.1 1.1
v 0.3 0.1 1
v 0.3 0.2 1.2
v 0.3 0.2 1.1
v 0.3 0.8 1.2
v 0.3 0.8 1.1
v 0.3 0.9 1.2
v 0.3 0.9 1.1
v 0.3 0.9 1
v 0.3 1 1.1
v 0.3 1 1
v 0.4 0 1
v 0.4 0 -0.7
v 0.4 0.1 1.1
v 0.4 0.1 1
v 0.4 0.1 -0.7
v 0.4 0.1 -0.8
v 0.4 0.2 1.2
v 0.4 0.2 1.1
v 0.4 0.2 1
v 0.4 0.4 -0.8
v 0.4 0.4 -0.9
v 0.4 0.6 -0.8
v 0.4 0.6 -0.9
v 0.4 0.8 1.2
v 0.4 0.8 1.1
v 0.4 0.8 1
v 0.4 0.9 1.1
v 0.4 0.9 1
v 0.4 0.9 -0.7
v 0.4 0.9 -0.8
v 0.4 1 1
v 0.4 1 -0.7
v 0.5 0.1 1
v 0.5 0.1 -0.7
v 0.5 0.2 1.1
v 0.5 0.2 1
v 0.5 0.2 -0.6
v 0.5 0.4 -0.9
v 0.5 0.4 -1.2
v 0.5 0.6 -0.9
v 0.5 0.6 -1.2
v 0.5 0.8 1.1
v 0.5 0.8 1
v 0.5 0.8 -0.6
v 0.5 0.9 1
v 0.5 0.9 -0.7
v -0.4 0.2 1.2
v -0.4 0.8 1.2
v -0.3 0.1 1.2
v -0.3 0.2 1.2
v -0.3 0.8 1.2
v -0.3 0.9 1.2
v -0.2 0.3 1.2
v -0.2 0.4 1.2
v -0.2 0.6 1.2
v -0.2 0.7 1.2
v -0.1 0.6 1.2
v -0.1 0.7 1.2
v 0.1 0.6 1.2
v 0.1 0.7 1.2
v 0.2 0.3 1.2
v 0.2 0.4 1.2
v 0.2 0.6 1.2
v 0.2 0.7 1.2
v 0.3 0.1 1.2
v 0.3 0.2 1.2
v 0.3 0.8 1.2
v 0.3 0.9 1.2
v 0.4 0.2 1.2
v 0.4 0.8 1.2
v -0.5 0.2 1.1
v -0.5 0.8 1.1
v -0.4 0.1 1.1
v -0.4 0.2 1.1
v -0.4 0.8 1.1
v -0.4 0.9 1.1
v -0.3 0 1.1
v -0.3 0.1 1.1
v -0.3 0.2 1.1
v -0.3 0.8 1.1
v -0.3 0.9 1.1
v -0.3 1 1.1
v 0.3 0 1.1
v 0.3 0.1 1.1
v 0.3 0.2 1.1
v 0.3 0.8 1.1
v 0.3 0.9 1.1
v 0.3 1 1.1
v 0.4 0.1 1.1
v 0.4 0.2 1.1
v 0.4 0.8 1.1
v 0.4 0.9 1.1
v 0.5 0.2 1.1
v 0.5 0.8 1.1
v -0.5 0.1 1
v -0.5 0.2 1
v -0.5 0.8 1
v -0.5 0.9 1
v -0.4 0 1
v -0.4 0.1 1
v -0.4 0.2 1
v -0.4 0.8 1
v -0.4 0.9 1
v -0.4 1 1
v -0.3 0 1
v -0.3 0.1 1
v -0.3 0.9 1
v -0.3 1 1
v 0.3 0 1
v 0.3 0.1 1
v 0.3 0.9 1
v 0.3 1 1
v 0.4 0 1
v 0.4 0.1 1
v 0.4 0.2 1
v 0.4 0.8 1
v 0.4 0.9 1
v 0.4 1 1
v 0.5 0.1 1
v 0.5 0.2 1
v 0.5 0.8 1
v 0.5 0.9 1
v -0.5 0.4 -0.9
v -0.5 0.6 -0.9
v -0.4 0.4 -0.9
v -0.4 0.6 -0.9
v -0.1 0 -0.9
v -0.1 0.1 -0.9
v -0.1 0.9 -0.9
v -0.1 1 -0.9
v 0.1 0 -0.9
v 0.1 0.1 -0.9
v 0.1 0.9 -0.9
v 0.1 1 -0.9
v 0.4 0.4 -0.9
v 0.4 0.6 -0.9
v 0.5 0.4 -0.9
v 0.5 0.6 -0.9
v -0.5 0.1 -0.7
v -0.5 0.9 -0.7
v -0.4 0 -0.7
v -0.4 0.1 -0.7
v -0.4 0.9 -0.7
v -0.4 1 -0.7
v 0.4 0 -0.7
v 0.4 0.1 -0.7
v 0.4 0.9 -0.7
v 0.4 1 -0.7
v 0.5 0.1 -0.7
v 0.5 0.9 -0.7
v -0.4 0.1 -0.8
v -0.4 0.4 -0.8
v -0.4 0.6 -0.8
v -0.4 0.9 -0.8
v -0.1 0.1 -0.8
v -0.1 0.4 -0.8
v -0.1 0.6 -0.8
v -0.1 0.9 -0.8
v 0.1 0.1 -0.8
v 0.1 0.4 -0.8
v 0.1 0.6 -0.8
v 0.1 0.9 -0.8
v 0.4 0.1 -0.8
v 0.4 0.4 -0.8
v 0.4 0.6 -0.8
v 0.4 0.9 -0.8
v -0.2 0.4 -0.9
v -0.2 0.6 -0.9
v -0.1 0.3 -0.9
v -0.1 0.4 -0.9
v -0.1 0.6 -0.9
v -0.1 0.7 -0.9
v 0.1 0.3 -0.9
v 0.1 0.4 -0.9
v 0.1 0.6 -0.9
v 0.1 0.7 -0.9
v 0.2 0.4 -0.9
v 0.2 0.6 -0.9
v -0.3 0.4 -1
v -0.3 0.6 -1
v -0.2 0.4 -1
v -0.2 0.6 -1
v -0.1 0.2 -1
v -0.1 0.3 -1
v -0.1 0.7 -1
v -0.1 0.8 -1
v 0.1 0.2 -1
v 0.1 0.3 -1
v 0.1 0.7 -1
v 0.1 0.8 -1
v 0.2 0.4 -1
v 0.2 0.6 -1
v 0.3 0.4 -1
v 0.3 0.6 -1
v -0.4 0.4 -1.1
v -0.4 0.6 -1.1
v -0.3 0.4 -1.1
v -0.3 0.6 -1.1
v -0.1 0.1 -1.1
v -0.1 0.2 -1.1
v -0.1 0.8 -1.1
v -0.1 0.9 -1.1
v 0.1 0.1 -1.1
v 0.1 0.2 -1.1
v 0.1 0.8 -1.1
v 0.1 0.9 -1.1
v 0.3 0.4 -1.1
v 0.3 0.6 -1.1
v 0.4 0.4 -1.1
v 0.4 0.6 -1.1
v -0.5 0.4 -1.2
v -0.5 0.6 -1.2
v -0.4 0.4 -1.2
v -0.4 0.6 -1.2
v -0.1 0 -1.2
v -0.1 0.1 -1.2
v -0.1 0.9 -1.2
v -0.1 1 -1.2
v 0.1 0 -1.2
v 0.1 0.1 -1.2
v 0.1 0.9 -1.2
v 0.1 1 -1.2
v 0.4 0.4 -1.2
v 0.4 0.6 -1.2
v 0.5 0.4 -1.2
v 0.5 0.6 -1.2
v -0.3 0 1.1
v 0.3 0 1.1
v -0.4 0 1
v -0.3 0 1
v 0.3 0 1
v 0.4 0 1
v -0.3 0 -0.6
v 0.3 0 -0.6
v -0.4 0 -0.7
v 0.4 0 -0.7
v -0.1 0 -0.9
v 0.1 0 -0.9
v -0.1 0 -1.2
v 0.1 0 -1.2
v -0.3 0.1 1.2
v 0.3 0.1 1.2
v -0.4 0.1 1.1
v -0.3 0.1 1.1
v 0.3 0.1 1.1
v 0.4 0.1 1.1
v -0.5 0.1 1
v -0.4 0.1 1
v -0.3 0.1 1
v 0.3 0.1 1
v 0.4 0.1 1
v 0.5 0.1 1
v -0.5 0.1 -0.7
v -0.4 0.1 -0.7
v 0.4 0.1 -0.7
v 0.5 0.1 -0.7
v -0.4 0.1 -0.8
v -0.1 0.1 -0.8
v 0.1 0.1 -0.8
v 0.4 0.1 -0.8
v -0.1 0.1 -0.9
v 0.1 0.1 -0.9
v -0.4 0.2 1.2
v -0.3 0.2 1.2
v 0.3 0.2 1.2
v 0.4 0.2 1.2
v -0.5 0.2 1.1
v -0.4 0.2 1.1
v -0.3 0.2 1.1
v 0.3 0.2 1.1
v 0.4 0.2 1.1
v 0.5 0.2 1.1
v -0.5 0.2 1
v -0.4 0.2 1
v 0.4 0.2 1
v 0.5 0.2 1
v -0.4 0.4 -0.8
v -0.1 0.4 -0.8
v 0.1 0.4 -0.8
v 0.4 0.4 -0.8
v -0.5 0.4 -0.9
v -0.4 0.4 -0.9
v -0.2 0.4 -0.9
v -0.1 0.4 -0.9
v 0.1 0.4 -0.9
v 0.2 0.4 -0.9
v 0.4 0.4 -0.9
v 0.5 0.4 -0.9
v -0.3 0.4 -1
v -0.2 0.4 -1
v 0.2 0.4 -1
v 0.3 0.4 -1
v -0.4 0.4 -1.1
v -0.3 0.4 -1.1
v 0.3 0.4 -1.1
v 0.4 0.4 -1.1
v -0.5 0.4 -1.2
v -0.4 0.4 -1.2
v 0.4 0.4 -1.2
v 0.5 0.4 -1.2
v -0.1 0.6 -0.8
v 0.1 0.6 -0.8
v -0.1 0.6 -0.9
v 0.1 0.6 -0.9
v -0.1 0.7 -0.9
v 0.1 0.7 -0.9
v -0.1 0.7 -1
v 0.1 0.7 -1
v -0.1 0.8 -1
v 0.1 0.8 -1
v -0.1 0.8 -1.1
v 0.1 0.8 -1.1
v -0.1 0.9 -1.1
v 0.1 0.9 -1.1
v -0.1 0.9 -1.2
v 0.1 0.9 -1.2
v -0.1 0.1 -1.1
v 0.1 0.1 -1.1
v -0.1 0.1 -1.2
v 0.1 0.1 -1.2
v -0.1 0.2 -1
v 0.1 0.2 -1
v -0.1 0.2 -1.1
v 0.1 0.2 -1.1
v -0.1 0.3 -0.9
v 0.1 0.3 -0.9
v -0.1 0.3 -1
v 0.1 0.3 -1
v -0.1 0.4 -0.8
v 0.1 0.4 -0.8
v -0.1 0.4 -0.9
v 0.1 0.4 -0.9
v -0.4 0.6 -0.8
v -0.1 0.6 -0.8
v 0.1 0.6 -0.8
v 0.4 0.6 -0.8
v -0.5 0.6 -0.9
v -0.4 0.6 -0.9
v -0.2 0.6 -0.9
v -0.1 0.6 -0.9
v 0.1 0.6 -0.9
v 0.2 0.6 -0.9
v 0.4 0.6 -0.9
v 0.5 0.6 -0.9
v -0.3 0.6 -1
v -0.2 0.6 -1
v 0.2 0.6 -1
v 0.3 0.6 -1
v -0.4 0.6 -1.1
v -0.3 0.6 -1.1
v 0.3 0.6 -1.1
v 0.4 0.6 -1.1
v -0.5 0.6 -1.2
v -0.4 0.6 -1.2
v 0.4 0.6 -1.2
v 0.5 0.6 -1.2
v -0.4 0.8 1.2
v -0.3 0.8 1.2
v 0.3 0.8 1.2
v 0.4 0.8 1.2
v -0.5 0.8 1.1
v -0.4 0.8 1.1
v -0.3 0.8 1.1
v 0.3 0.8 1.1
v 0.4 0.8 1.1
v 0.5 0.8 1.1
v -0.5 0.8 1
v -0.4 0.8 1
v 0.4 0.8 1
v 0.5 0.8 1
v -0.3 0.9 1.2
v 0.3 0.9 1.2
v -0.4 0.9 1.1
v -0.3 0.9 1.1
v 0.3 0.9 1.1
v 0.4 0.9 1.1
v -0.5 0.9 1
v -0.4 0.9 1
v -0.3 0.9 1
v 0.3 0.9 1
v 0.4 0.9 1
v 0.5 0.9 1
v -0.5 0.9 -0.7
v -0.4 0.9 -0.7
v 0.4 0.9 -0.7
v 0.5 0.9 -0.7
v -0.4 0.9 -0.8
v -0.1 0.9 -0.8
v 0.1 0.9 -0.8
v 0.4 0.9 -0.8
v -0.1 0.9 -0.9
v 0.1 0.9 -0.9
v -0.3 1 1.1
v 0.3 1 1.1
v -0.4 1 1
v -0.3 1 1
v 0.3 1 1
v 0.4 1 1
v -0.3 1 -0.6
v 0.3 1 -0.6
v -0.4 1 -0.7
v 0.4 1 -0.7
v -0.1 1 -0.9
v 0.1 1 -0.9
v -0.1 1 -1.2
v 0.1 1 -1.2

# faces
f 4/1/1 2/1/1 1/1/1
f 5/1/1 2/1/1 4/1/1
f 8/1/1 7/1/1 6/1/1
f 9/1/1 7/1/1 8/1/1
f 10/1/1 4/1/1 3/1/1
f 11/3/1 5/3/1 4/3/1
f 11/1/1 4/1/1 10/1/1
f 12/1/1 2/1/1 5/1/1
f 12/3/1 5/3/1 11/3/1
f 13/1/1 12/1/1 11/1/1
f 14/1/1 2/1/1 12/1/1
f 14/1/1 12/1/1 13/1/1
f 18/1/1 16/1/1 15/1/1
f 19/1/1 16/1/1 18/1/1
f 22/1/1 18/1/1 17/1/1
f 23/1/1 18/1/1 22/1/1
f 24/3/1 20/3/1 19/3/1
f 26/3/1 24/3/1 19/3/1
f 26/3/1 25/3/1 24/3/1
f 27/3/1 25/3/1 26/3/1
f 28/1/1 22/1/1 21/1/1
f 29/1/1 22/1/1 28/1/1
f 31/1/1 30/1/1 29/1/1
f 32/1/1 30/1/1 31/1/1
f 33/3/1 26/3/1 19/3/1
f 34/3/1 26/3/1 33/3/1
f 35/1/1 33/1/1 32/1/1
f 36/1/1 33/1/1 35/1/1
f 40/1/1 38/1/1 37/1/1
f 41/1/1 38/1/1 40/1/1
f 42/1/1 40/1/1 39/1/1
f 43/1/1 40/1/1 42/1/1
f 46/1/1 45/1/1 44/1/1
f 47/1/1 45/1/1 46/1/1
f 49/1/1 48/1/1 47/1/1
f 50/1/1 48/1/1 49/1/1
f 54/1/1 52/1/1 51/1/1
f 55/1/1 52/1/1 54/1/1
f 56/1/1 52/1/1 55/1/1
f 57/3/1 54/3/1 53/3/1
f 57/3/1 55/3/1 54/3/1
f 58/3/1 55/3/1 57/3/1
f 59/3/1 57/3/1 53/3/1
f 60/3/1 57/3/1 59/3/1
f 61/3/1 59/3/1 53/3/1
f 62/3/1 59/3/1 61/3/1
f 65/3/1 64/3/1 63/3/1
f 67/3/1 66/3/1 65/3/1
f 69/3/1 67/3/1 65/3/1
f 69/3/1 68/3/1 67/3/1
f 69/3/1 65/3/1 63/3/1
f 70/3/1 68/3/1 69/3/1
f 71/3/1 68/3/1 70/3/1
f 73/1/1 71/1/1 70/1/1
f 73/1/1 72/1/1 71/1/1
f 74/1/1 72/1/1 73/1/1
f 77/3/1 76/3/1 75/3/1
f 78/3/1 76/3/1 77/3/1
f 81/3/1 80/3/1 79/3/1
f 82/3/1 80/3/1 81/3/1
f 85/3/1 84/3/1 83/3/1
f 86/3/1 84/3/1 85/3/1
f 89/1/1 88/1/1 87/1/1
f 90/1/1 88/1/1 89/1/1
f 91/1/2 92/1/2 93/1/2
f 93/1/2 92/1/2 94/1/2
f 95/3/2 96/3/2 97/3/2
f 97/3/2 96/3/2 98/3/2
f 99/3/2 100/3/2 101/3/2
f 101/3/2 100/3/2 102/3/2
f 103/3/2 104/3/2 105/3/2
f 105/3/2 104/3/2 106/3/2
f 107/1/2 108/1/2 110/1/2
f 110/1/2 108/1/2 111/1/2
f 111/1/2 108/1/2 112/1/2
f 109/3/2 110/3/2 113/3/2
f 110/3/2 111/3/2 113/3/2
f 113/3/2 111/3/2 114/3/2
f 109/3/2 113/3/2 115/3/2
f 115/3/2 113/3/2 116/3/2
f 109/3/2 115/3/2 117/3/2
f 117/3/2 115/3/2 118/3/2
f 119/3/2 120/3/2 121/3/2
f 121/3/2 122/3/2 123/3/2
f 121/3/2 123/3/2 125/3/2
f 123/3/2 124/3/2 125/3/2
f 119/3/2 121/3/2 125/3/2
f 125/3/2 124/3/2 126/3/2
f 126/3/2 124/3/2 127/3/2
f 126/1/2 127/1/2 129/1/2
f 127/1/2 128/1/2 129/1/2
f 129/1/2 128/1/2 130/1/2
f 131/1/2 132/1/2 134/1/2
f 134/1/2 132/1/2 135/1/2
f 133/1/2 134/1/2 136/1/2
f 136/1/2 134/1/2 137/1/2
f 138/1/2 139/1/2 140/1/2
f 140/1/2 139/1/2 141/1/2
f 141/1/2 142/1/2 143/1/2
f 143/1/2 142/1/2 144/1/2
f 145/1/2 146/1/2 148/1/2
f 148/1/2 146/1/2 149/1/2
f 147/1/2 148/1/2 152/1/2
f 152/1/2 148/1/2 153/1/2
f 149/3/2 150/3/2 154/3/2
f 149/3/2 154/3/2 156/3/2
f 154/3/2 155/3/2 156/3/2
f 156/3/2 155/3/2 157/3/2
f 151/1/2 152/1/2 158/1/2
f 158/1/2 152/1/2 159/1/2
f 159/1/2 160/1/2 161/1/2
f 161/1/2 160/1/2 162/1/2
f 149/3/2 156/3/2 163/3/2
f 163/3/2 156/3/2 164/3/2
f 162/1/2 163/1/2 165/1/2
f 165/1/2 163/1/2 166/1/2
f 167/1/2 168/1/2 170/1/2
f 170/1/2 168/1/2 171/1/2
f 172/1/2 173/1/2 174/1/2
f 174/1/2 173/1/2 175/1/2
f 169/1/2 170/1/2 176/1/2
f 170/3/2 171/3/2 177/3/2
f 176/1/2 170/1/2 177/1/2
f 171/1/2 168/1/2 178/1/2
f 177/3/2 171/3/2 178/3/2
f 177/1/2 178/1/2 179/1/2
f 178/1/2 168/1/2 180/1/2
f 179/1/2 178/1/2 180/1/2
f 184/1/3 182/1/3 181/1/3
f 185/1/3 182/1/3 184/1/3
f 187/3/3 185/3/3 184/3/3
f 188/3/3 185/3/3 187/3/3
f 189/3/3 185/3/3 188/3/3
f 190/3/3 185/3/3 189/3/3
f 191/3/3 189/3/3 188/3/3
f 191/1/3 190/1/3 189/1/3
f 192/3/3 185/3/3 190/3/3
f 192/1/3 190/1/3 191/1/3
f 193/3/3 191/3/3 188/3/3
f 193/3/3 192/3/3 191/3/3
f 194/3/3 185/3/3 192/3/3
f 194/3/3 192/3/3 193/3/3
f 195/3/3 187/3/3 184/3/3
f 195/1/3 188/1/3 187/1/3
f 196/3/3 193/3/3 188/3/3
f 196/1/3 188/1/3 195/1/3
f 197/1/3 194/1/3 193/1/3
f 197/3/3 193/3/3 196/3/3
f 198/3/3 185/3/3 194/3/3
f 198/1/3 194/1/3 197/1/3
f 199/1/3 184/1/3 183/1/3
f 200/3/3 197/3/3 196/3/3
f 200/1/3 184/1/3 199/1/3
f 200/3/3 196/3/3 195/3/3
f 200/3/3 198/3/3 197/3/3
f 200/3/3 195/3/3 184/3/3
f 201/3/3 185/3/3 198/3/3
f 201/3/3 198/3/3 200/3/3
f 201/1/3 186/1/3 185/1/3
f 202/1/3 186/1/3 201/1/3
f 203/1/3 201/1/3 200/1/3
f 204/1/3 201/1/3 203/1/3
f 208/1/3 206/1/3 205/1/3
f 209/1/3 206/1/3 208/1/3
f 212/1/3 208/1/3 207/1/3
f 213/1/3 208/1/3 212/1/3
f 214/1/3 210/1/3 209/1/3
f 215/1/3 210/1/3 214/1/3
f 217/1/3 212/1/3 211/1/3
f 218/1/3 212/1/3 217/1/3
f 221/1/3 216/1/3 215/1/3
f 222/1/3 216/1/3 221/1/3
f 223/1/3 219/1/3 218/1/3
f 224/1/3 219/1/3 223/1/3
f 225/1/3 221/1/3 220/1/3
f 226/1/3 221/1/3 225/1/3
f 227/1/3 225/1/3 224/1/3
f 228/1/3 225/1/3 227/1/3
f 234/1/3 230/1/3 229/1/3
f 235/1/3 230/1/3 234/1/3
f 236/1/3 232/1/3 231/1/3
f 237/1/3 232/1/3 236/1/3
f 239/1/3 234/1/3 233/1/3
f 240/1/3 234/1/3 239/1/3
f 241/1/3 238/1/3 237/1/3
f 242/1/3 238/1/3 241/1/3
f 247/1/3 244/1/3 243/1/3
f 248/1/3 244/1/3 247/1/3
f 251/1/3 246/1/3 245/1/3
f 252/1/3 246/1/3 251/1/3
f 253/1/3 249/1/3 248/1/3
f 254/1/3 249/1/3 253/1/3
f 255/1/3 251/1/3 250/1/3
f 256/1/3 251/1/3 255/1/3
f 259/1/3 258/1/3 257/1/3
f 260/1/3 258/1/3 259/1/3
f 265/1/3 262/1/3 261/1/3
f 266/1/3 262/1/3 265/1/3
f 267/1/3 264/1/3 263/1/3
f 268/1/3 264/1/3 267/1/3
f 271/1/3 270/1/3 269/1/3
f 272/1/3 270/1/3 271/1/3
f 273/1/4 274/1/4 276/1/4
f 276/1/4 274/1/4 277/1/4
f 275/1/4 276/1/4 279/1/4
f 279/1/4 276/1/4 280/1/4
f 277/1/4 278/1/4 281/1/4
f 281/1/4 278/1/4 282/1/4
f 280/1/4 281/1/4 283/1/4
f 283/1/4 281/1/4 284/1/4
f 285/3/4 286/3/4 289/3/4
f 289/3/4 286/3/4 290/3/4
f 287/3/4 288/3/4 291/3/4
f 291/3/4 288/3/4 292/3/4
f 290/1/4 291/1/4 294/1/4
f 294/1/4 291/1/4 295/1/4
f 293/3/4 294/3/4 297/3/4
f 297/3/4 294/3/4 298/3/4
f 295/3/4 296/3/4 299/3/4
f 299/3/4 296/3/4 300/3/4
f 301/3/4 302/3/4 304/3/4
f 304/3/4 302/3/4 305/3/4
f 303/3/4 304/3/4 307/3/4
f 307/3/4 304/3/4 308/3/4
f 305/3/4 306/3/4 309/3/4
f 309/3/4 306/3/4 310/3/4
f 308/3/4 309/3/4 311/3/4
f 311/3/4 309/3/4 312/3/4
f 313/3/4 314/3/4 315/3/4
f 315/3/4 314/3/4 316/3/4
f 317/3/4 318/3/4 321/3/4
f 321/3/4 318/3/4 322/3/4
f 319/3/4 320/3/4 323/3/4
f 323/3/4 320/3/4 324/3/4
f 325/3/4 326/3/4 327/3/4
f 327/3/4 326/3/4 328/3/4
f 329/3/4 330/3/4 331/3/4
f 331/3/4 330/3/4 332/3/4
f 333/3/4 334/3/4 337/3/4
f 337/3/4 334/3/4 338/3/4
f 335/3/4 336/3/4 339/3/4
f 339/3/4 336/3/4 340/3/4
f 341/3/4 342/3/4 343/3/4
f 343/3/4 342/3/4 344/3/4
f 345/1/4 346/1/4 347/1/4
f 347/1/4 346/1/4 348/1/4
f 349/1/4 350/1/4 353/1/4
f 353/1/4 350/1/4 354/1/4
f 351/1/4 352/1/4 355/1/4
f 355/1/4 352/1/4 356/1/4
f 357/1/4 358/1/4 359/1/4
f 359/1/4 358/1/4 360/1/4
f 364/1/5 362/1/5 361/1/5
f 365/1/5 362/1/5 364/1/5
f 367/1/5 364/1/5 363/1/5
f 367/3/5 365/3/5 364/3/5
f 368/1/5 366/1/5 365/1/5
f 368/3/5 365/3/5 367/3/5
f 369/1/5 367/1/5 363/1/5
f 369/1/5 368/1/5 367/1/5
f 370/1/5 366/1/5 368/1/5
f 370/1/5 368/1/5 369/1/5
f 373/1/5 372/1/5 371/1/5
f 374/1/5 372/1/5 373/1/5
f 378/1/5 376/1/5 375/1/5
f 379/1/5 376/1/5 378/1/5
f 382/1/5 378/1/5 377/1/5
f 383/1/5 378/1/5 382/1/5
f 384/1/5 380/1/5 379/1/5
f 385/1/5 380/1/5 384/1/5
f 387/1/5 382/1/5 381/1/5
f 388/1/5 382/1/5 387/1/5
f 389/1/5 386/1/5 385/1/5
f 390/1/5 386/1/5 389/1/5
f 391/3/5 389/3/5 388/3/5
f 392/3/5 389/3/5 391/3/5
f 393/3/5 389/3/5 392/3/5
f 394/3/5 389/3/5 393/3/5
f 395/3/5 393/3/5 392/3/5
f 396/3/5 393/3/5 395/3/5
f 402/1/5 398/1/5 397/1/5
f 403/1/5 398/1/5 402/1/5
f 404/1/5 400/1/5 399/1/5
f 405/1/5 400/1/5 404/1/5
f 407/1/5 402/1/5 401/1/5
f 408/1/5 402/1/5 407/1/5
f 409/1/5 406/1/5 405/1/5
f 410/1/5 406/1/5 409/1/5
f 416/3/5 412/3/5 411/3/5
f 417/3/5 412/3/5 416/3/5
f 418/3/5 412/3/5 417/3/5
f 419/3/5 414/3/5 413/3/5
f 420/3/5 414/3/5 419/3/5
f 421/3/5 414/3/5 420/3/5
f 423/3/5 417/3/5 416/3/5
f 424/3/5 417/3/5 423/3/5
f 425/3/5 421/3/5 420/3/5
f 426/3/5 421/3/5 425/3/5
f 427/1/5 416/1/5 415/1/5
f 427/3/5 423/3/5 416/3/5
f 428/3/5 423/3/5 427/3/5
f 429/3/5 421/3/5 426/3/5
f 430/1/5 422/1/5 421/1/5
f 430/3/5 421/3/5 429/3/5
f 431/1/5 427/1/5 415/1/5
f 432/1/5 427/1/5 431/1/5
f 433/1/5 422/1/5 430/1/5
f 434/1/5 422/1/5 433/1/5
f 437/3/5 436/3/5 435/3/5
f 438/3/5 436/3/5 437/3/5
f 441/3/5 440/3/5 439/3/5
f 442/3/5 440/3/5 441/3/5
f 445/3/5 444/3/5 443/3/5
f 446/3/5 444/3/5 445/3/5
f 449/1/5 448/1/5 447/1/5
f 450/1/5 448/1/5 449/1/5
f 451/1/6 452/1/6 453/1/6
f 453/1/6 452/1/6 454/1/6
f 455/3/6 456/3/6 457/3/6
f 457/3/6 456/3/6 458/3/6
f 459/3/6 460/3/6 461/3/6
f 461/3/6 460/3/6 462/3/6
f 463/3/6 464/3/6 465/3/6
f 465/3/6 464/3/6 466/3/6
f 467/3/6 468/3/6 472/3/6
f 472/3/6 468/3/6 473/3/6
f 473/3/6 468/3/6 474/3/6
f 469/3/6 470/3/6 475/3/6
f 475/3/6 470/3/6 476/3/6
f 476/3/6 470/3/6 477/3/6
f 472/3/6 473/3/6 479/3/6
f 479/3/6 473/3/6 480/3/6
f 476/3/6 477/3/6 481/3/6
f 481/3/6 477/3/6 482/3/6
f 471/1/6 472/1/6 483/1/6
f 472/3/6 479/3/6 483/3/6
f 483/3/6 479/3/6 484/3/6
f 482/3/6 477/3/6 485/3/6
f 477/1/6 478/1/6 486/1/6
f 485/3/6 477/3/6 486/3/6
f 471/1/6 483/1/6 487/1/6
f 487/1/6 483/1/6 488/1/6
f 486/1/6 478/1/6 489/1/6
f 489/1/6 478/1/6 490/1/6
f 491/1/6 492/1/6 496/1/6
f 496/1/6 492/1/6 497/1/6
f 493/1/6 494/1/6 498/1/6
f 498/1/6 494/1/6 499/1/6
f 495/1/6 496/1/6 501/1/6
f 501/1/6 496/1/6 502/1/6
f 499/1/6 500/1/6 503/1/6
f 503/1/6 500/1/6 504/1/6
f 505/1/6 506/1/6 508/1/6
f 508/1/6 506/1/6 509/1/6
f 507/1/6 508/1/6 512/1/6
f 512/1/6 508/1/6 513/1/6
f 509/1/6 510/1/6 514/1/6
f 514/1/6 510/1/6 515/1/6
f 511/1/6 512/1/6 517/1/6
f 517/1/6 512/1/6 518/1/6
f 515/1/6 516/1/6 519/1/6
f 519/1/6 516/1/6 520/1/6
f 518/3/6 519/3/6 521/3/6
f 521/3/6 519/3/6 522/3/6
f 522/3/6 519/3/6 523/3/6
f 523/3/6 519/3/6 524/3/6
f 522/3/6 523/3/6 525/3/6
f 525/3/6 523/3/6 526/3/6
f 527/1/6 528/1/6 530/1/6
f 530/1/6 528/1/6 531/1/6
f 529/1/6 530/1/6 533/1/6
f 530/3/6 531/3/6 533/3/6
f 531/1/6 532/1/6 534/1/6
f 533/3/6 531/3/6 534/3/6
f 529/1/6 533/1/6 535/1/6
f 533/1/6 534/1/6 535/1/6
f 534/1/6 532/1/6 536/1/6
f 535/1/6 534/1/6 536/1/6
f 537/1/6 538/1/6 539/1/6
f 539/1/6 538/1/6 540/1/6
